# xmcd
#
# Track frame offsets:
#	150
#	12650
#	31809
#	52375
#	73872
#	88798
#	102652
#	117558
#	131735
#	146996
#	161598
#	178126
#
# Disc length: 2577 seconds
#
# Revision: 1
# Processed by: cddbd v1.5.2PL0 Copyright (c) Steve Scherf et al.
# Submitted via: audiograbber 1.83.01
#
DISCID=c10a0f0c
DTITLE=Terry Robbins - Love Front
DYEAR=2017
DGENRE=Country
TTITLE0=Love Front
TTITLE1=Break My Heart
TTITLE2=Jambalaya
TTITLE3=Life Without You
TTITLE4=Got A Love For You
TTITLE5=Mind On My Honey
TTITLE6=Through My Teardrops
TTITLE7=Thank You Note
TTITLE8=Deer In The Headlights
TTITLE9=Legends
TTITLE10=BBQ Buzz
TTITLE11=Flyin Off The Handle
EXTD=
EXTT0=
EXTT1=
EXTT2=
EXTT3=
EXTT4=
EXTT5=
EXTT6=
EXTT7=
EXTT8=
EXTT9=
EXTT10=
EXTT11=
PLAYORDER=
